<svg width="23" height="20" viewBox="0 0 23 20" fill="none" xmlns="http://www.w3.org/2000/svg">
<g clip-path="url(#clip0_2_510)">
<path d="M19.9793 6.19173C19.993 6.35574 19.993 6.51978 19.993 6.68379C19.993 11.6862 15.5387 17.4501 7.39758 17.4501C4.88945 17.4501 2.55951 16.8291 0.599609 15.7514C0.955967 15.7865 1.29857 15.7982 1.66864 15.7982C3.73815 15.7982 5.64325 15.2008 7.16458 14.1816C5.21838 14.1464 3.58741 13.0569 3.02548 11.5573C3.29961 11.5924 3.5737 11.6159 3.86155 11.6159C4.259 11.6159 4.65649 11.569 5.02651 11.487C2.9981 11.1356 1.47673 9.61259 1.47673 7.7733V7.72645C2.06605 8.00762 2.75138 8.18335 3.47773 8.20675C2.28534 7.52725 1.50415 6.36746 1.50415 5.05534C1.50415 4.35244 1.7234 3.70811 2.10718 3.14577C4.28638 5.44195 7.56202 6.94148 11.2351 7.10552C11.1666 6.82435 11.1254 6.5315 11.1254 6.23861C11.1254 4.15328 13.099 2.45459 15.5523 2.45459C16.8269 2.45459 17.9782 2.91148 18.7869 3.64954C19.7873 3.48554 20.7467 3.16921 21.5965 2.73576C21.2675 3.61442 20.5686 4.35248 19.6503 4.82106C20.5412 4.73909 21.4046 4.52817 22.1995 4.23532C21.5966 4.98506 20.8427 5.6528 19.9793 6.19173Z" fill="#F5F5F5"/>
</g>
<defs>
<clipPath id="clip0_2_510">
<rect width="21.6" height="18.4632" fill="white" transform="translate(0.599609 0.720703)"/>
</clipPath>
</defs>
</svg>
