<svg width="23" height="20" viewBox="0 0 23 20" fill="none" xmlns="http://www.w3.org/2000/svg">
<g clip-path="url(#clip0_2_512)">
<path d="M11.3996 8.02892C10.891 8.02907 10.3939 8.142 9.97108 8.35344C9.54829 8.56488 9.21881 8.86534 9.02431 9.21683C8.82981 9.56831 8.77902 9.95504 8.87836 10.3281C8.9777 10.7012 9.22271 11.0439 9.58241 11.3128C9.94212 11.5817 10.4004 11.7648 10.8992 11.839C11.398 11.9132 11.9151 11.875 12.385 11.7294C12.8548 11.5838 13.2564 11.3373 13.539 11.021C13.8215 10.7047 13.9723 10.3328 13.9723 9.95242C13.9718 9.44227 13.7006 8.95313 13.2182 8.59247C12.7358 8.23181 12.0817 8.02912 11.3996 8.02892ZM17.4124 6.55042C17.2815 6.30227 17.0838 6.07688 16.8316 5.88824C16.5794 5.6996 16.278 5.55173 15.9462 5.45381C14.9337 5.15486 12.523 5.22194 11.3996 5.22194C10.2762 5.22194 7.86791 5.15234 6.85252 5.45381C6.52073 5.55173 6.21938 5.6996 5.96716 5.88824C5.71495 6.07688 5.51725 6.30227 5.38632 6.55042C4.98711 7.3077 5.07631 9.11256 5.07631 9.95206C5.07631 10.7916 4.98711 12.5942 5.38825 13.354C5.51918 13.6022 5.71688 13.8276 5.96909 14.0162C6.22131 14.2049 6.52266 14.3527 6.85445 14.4507C7.86695 14.7496 10.2777 14.6825 11.4015 14.6825C12.5254 14.6825 14.9328 14.7521 15.9481 14.4507C16.2799 14.3527 16.5813 14.2049 16.8335 14.0162C17.0857 13.8276 17.2834 13.6022 17.4143 13.354C17.8169 12.5968 17.7244 10.7919 17.7244 9.95242C17.7244 9.11292 17.8169 7.31059 17.4143 6.55078L17.4124 6.55042ZM11.3996 12.9094C10.6177 12.9094 9.85328 12.736 9.20312 12.4111C8.55296 12.0862 8.04622 11.6243 7.74699 11.084C7.44775 10.5437 7.36946 9.94914 7.52201 9.37554C7.67455 8.80193 8.0511 8.27505 8.60401 7.8615C9.15693 7.44796 9.86139 7.16633 10.6283 7.05223C11.3952 6.93814 12.1902 6.9967 12.9126 7.2205C13.635 7.44431 14.2525 7.82332 14.6869 8.3096C15.1213 8.79587 15.3532 9.36758 15.3532 9.95242C15.3538 10.3409 15.252 10.7256 15.0535 11.0846C14.8551 11.4435 14.5639 11.7697 14.1966 12.0444C13.8294 12.3191 13.3933 12.5369 12.9133 12.6853C12.4334 12.8337 11.919 12.9099 11.3996 12.9094ZM15.5161 7.56157C15.3336 7.56165 15.1551 7.52123 15.0033 7.44543C14.8515 7.36963 14.7331 7.26186 14.6632 7.13575C14.5933 7.00963 14.575 6.87085 14.6105 6.73694C14.6461 6.60302 14.7339 6.48001 14.863 6.38344C14.992 6.28688 15.1564 6.22111 15.3355 6.19445C15.5145 6.16779 15.7 6.18143 15.8687 6.23366C16.0374 6.28589 16.1815 6.37436 16.2829 6.48787C16.3843 6.60138 16.4385 6.73484 16.4385 6.87137C16.439 6.96203 16.4156 7.05187 16.3695 7.13575C16.3235 7.21962 16.2558 7.29588 16.1703 7.36014C16.0848 7.42439 15.9832 7.47539 15.8712 7.51021C15.7593 7.54502 15.6393 7.56297 15.5181 7.56302L15.5161 7.56157ZM19.8853 1.87476H2.9139C2.30011 1.87476 1.71146 2.05712 1.27745 2.38173C0.843435 2.70634 0.599609 3.14661 0.599609 3.60568L0.599609 16.2992C0.599609 16.7582 0.843435 17.1985 1.27745 17.5231C1.71146 17.8477 2.30011 18.0301 2.9139 18.0301H19.8853C20.4991 18.0301 21.0878 17.8477 21.5218 17.5231C21.9558 17.1985 22.1996 16.7582 22.1996 16.2992V3.60568C22.1996 3.14661 21.9558 2.70634 21.5218 2.38173C21.0878 2.05712 20.4991 1.87476 19.8853 1.87476ZM19.0599 12.3324C18.9977 13.2567 18.7156 14.0756 17.8136 14.7485C16.9115 15.4214 15.8175 15.6367 14.5832 15.6807C13.3099 15.7344 9.49225 15.7344 8.21891 15.6807C6.98318 15.6342 5.89209 15.4229 4.98856 14.7485C4.08502 14.0742 3.80104 13.2549 3.74222 12.3324C3.67038 11.3797 3.67038 8.52404 3.74222 7.57239C3.80441 6.64815 4.08309 5.8292 4.98856 5.15631C5.89402 4.48341 6.988 4.27065 8.21891 4.22665C9.49225 4.17292 13.3099 4.17292 14.5832 4.22665C15.8189 4.27317 16.9134 4.48449 17.8136 5.15883C18.7137 5.83317 19.0011 6.65248 19.0599 7.57672C19.1317 8.52584 19.1317 11.379 19.0599 12.3324Z" fill="#F5F5F5"/>
</g>
<defs>
<clipPath id="clip0_2_512">
<rect width="21.6" height="18.4632" fill="white" transform="translate(0.599609 0.720703)"/>
</clipPath>
</defs>
</svg>
