<svg width="23" height="20" viewBox="0 0 23 20" fill="none" xmlns="http://www.w3.org/2000/svg">
<g clip-path="url(#clip0_2_508)">
<path d="M19.8853 1.87476H2.9139C2.30011 1.87476 1.71146 2.05712 1.27745 2.38173C0.843435 2.70634 0.599609 3.14661 0.599609 3.60568L0.599609 16.2992C0.599609 16.7582 0.843435 17.1985 1.27745 17.5231C1.71146 17.8477 2.30011 18.0301 2.9139 18.0301H9.53131V12.5376H6.49381V9.95242H9.53131V7.98205C9.53131 5.74085 11.3152 4.50288 14.0475 4.50288C15.3561 4.50288 16.7244 4.67742 16.7244 4.67742V6.87714H15.2167C13.7313 6.87714 13.2679 7.56662 13.2679 8.27378V9.95242H16.5841L16.0537 12.5376H13.2679V18.0301H19.8853C20.4991 18.0301 21.0878 17.8477 21.5218 17.5231C21.9558 17.1985 22.1996 16.7582 22.1996 16.2992V3.60568C22.1996 3.14661 21.9558 2.70634 21.5218 2.38173C21.0878 2.05712 20.4991 1.87476 19.8853 1.87476Z" fill="#F5F5F5"/>
</g>
<defs>
<clipPath id="clip0_2_508">
<rect width="21.6" height="18.4632" fill="white" transform="translate(0.599609 0.720703)"/>
</clipPath>
</defs>
</svg>
