<svg width="42" height="42" viewBox="0 0 42 42" fill="none" xmlns="http://www.w3.org/2000/svg">
<path d="M35.4375 16.7998C36.7619 17.5625 37.8358 18.6941 38.5282 20.0566C39.2206 21.4191 39.5016 22.9536 39.3368 24.4731C39.1721 25.9925 38.5688 27.4312 37.6004 28.6137C36.6321 29.7961 35.3406 30.6712 33.8835 31.1323C33.3685 33.4694 32.0708 35.5605 30.2052 37.0594C28.3397 38.5584 26.0181 39.3752 23.625 39.3748H19.6875C19.3394 39.3748 19.0055 39.2365 18.7594 38.9904C18.5133 38.7442 18.375 38.4104 18.375 38.0623C18.375 37.7142 18.5133 37.3804 18.7594 37.1342C19.0055 36.8881 19.3394 36.7498 19.6875 36.7498H23.625C25.2541 36.7503 26.8433 36.2457 28.1737 35.3054C29.5041 34.3652 30.5103 33.0356 31.0537 31.4998H30.1875C29.8394 31.4998 29.5055 31.3615 29.2594 31.1154C29.0133 30.8692 28.875 30.5354 28.875 30.1873V17.0623C28.875 16.7142 29.0133 16.3804 29.2594 16.1342C29.5055 15.8881 29.8394 15.7498 30.1875 15.7498H31.5C31.9252 15.7498 32.3426 15.7839 32.7521 15.8496C32.4566 12.9381 31.091 10.2401 28.9198 8.27806C26.7485 6.31606 23.9263 5.22983 21 5.22983C18.0736 5.22983 15.2514 6.31606 13.0802 8.27806C10.909 10.2401 9.54335 12.9381 9.24786 15.8496C9.66194 15.7832 10.0806 15.7499 10.5 15.7498H11.8125C12.1606 15.7498 12.4944 15.8881 12.7406 16.1342C12.9867 16.3804 13.125 16.7142 13.125 17.0623V30.1873C13.125 30.5354 12.9867 30.8692 12.7406 31.1154C12.4944 31.3615 12.1606 31.4998 11.8125 31.4998H10.5C8.76481 31.5017 7.07758 30.9305 5.70043 29.8749C4.32328 28.8193 3.33332 27.3384 2.88437 25.6624C2.43542 23.9863 2.55261 22.2088 3.21773 20.6062C3.88285 19.0036 5.05866 17.6655 6.56248 16.7998C6.56248 12.9707 8.08357 9.29851 10.7911 6.59095C13.4987 3.88339 17.1709 2.3623 21 2.3623C24.829 2.3623 28.5013 3.88339 31.2088 6.59095C33.9164 9.29851 35.4375 12.9707 35.4375 16.7998ZM10.5 18.3748C9.1076 18.3748 7.77224 18.9279 6.78767 19.9125C5.80311 20.8971 5.24998 22.2324 5.24998 23.6248C5.24998 25.0172 5.80311 26.3525 6.78767 27.3371C7.77224 28.3217 9.1076 28.8748 10.5 28.8748V18.3748ZM36.75 23.6248C36.75 22.2324 36.1969 20.8971 35.2123 19.9125C34.2277 18.9279 32.8924 18.3748 31.5 18.3748V28.8748C32.8924 28.8748 34.2277 28.3217 35.2123 27.3371C36.1969 26.3525 36.75 25.0172 36.75 23.6248Z" fill="#182C92"/>
</svg>
