<svg width="24" height="24" viewBox="0 0 24 24" fill="none" xmlns="http://www.w3.org/2000/svg">
<path d="M9 21.5476H15C20 21.5476 22 19.6494 22 14.904V9.20949C22 4.46408 20 2.56592 15 2.56592H9C4 2.56592 2 4.46408 2 9.20949V14.904C2 19.6494 4 21.5476 9 21.5476Z" stroke="black" stroke-width="1.5" stroke-linecap="round" stroke-linejoin="round"/>
<path d="M16.28 13.5848C15.15 14.6573 13.53 14.9894 12.1 14.5624L9.51001 17.011C9.33001 17.1913 8.96001 17.3052 8.69001 17.2672L7.49001 17.1154C7.09001 17.0679 6.73001 16.7073 6.67001 16.3371L6.51001 15.1982C6.47001 14.9515 6.60001 14.6003 6.78001 14.42L9.36001 11.9714C8.92001 10.6142 9.26001 9.07667 10.39 8.00421C12.01 6.4667 14.65 6.4667 16.28 8.00421C17.9 9.53223 17.9 12.0378 16.28 13.5848Z" stroke="black" stroke-width="1.5" stroke-miterlimit="10" stroke-linecap="round" stroke-linejoin="round"/>
<path d="M10.45 16.1189L9.59998 15.3027" stroke="#9197B3" stroke-width="1.5" stroke-miterlimit="10" stroke-linecap="round" stroke-linejoin="round"/>
<path d="M13.3945 10.8232H13.4035" stroke="#9197B3" stroke-width="2" stroke-linecap="round" stroke-linejoin="round"/>
</svg>
