<svg width="89" height="23" viewBox="0 0 89 23" fill="none" xmlns="http://www.w3.org/2000/svg">
<path d="M23.8154 8.57666V7.19922H30.3047V8.57666H27.8857V15.0998H26.2344V8.57666H23.8154Z" fill="#202020"/>
<path d="M34.0448 15.2152C33.4386 15.2152 32.9158 15.091 32.4754 14.8426C32.0351 14.5942 31.6964 14.2428 31.4593 13.7869C31.2236 13.3297 31.1064 12.7891 31.1064 12.1639C31.1064 11.5542 31.2236 11.02 31.4593 10.5606C31.6964 10.0999 32.0302 9.74067 32.4613 9.4824C32.8918 9.22484 33.3984 9.0957 33.9799 9.0957C34.5007 9.0957 34.9713 9.2072 35.3912 9.42877C35.8125 9.64894 36.1463 9.98342 36.3932 10.4308C36.6416 10.8768 36.7658 11.435 36.7658 12.1046V12.5563H32.7295V12.5619C32.7295 13.0043 32.8494 13.3522 33.0908 13.6063C33.3335 13.8603 33.6609 13.9873 34.073 13.9873C34.3475 13.9873 34.5846 13.9302 34.7843 13.8151C34.9854 13.6987 35.1273 13.5272 35.2106 13.3014L36.7291 13.403C36.6141 13.9527 36.3213 14.3924 35.8513 14.7212C35.3806 15.0508 34.7787 15.2152 34.0448 15.2152ZM32.7295 11.5373H35.219C35.2148 11.1859 35.1012 10.8958 34.8775 10.6679C34.6531 10.4386 34.3624 10.3235 34.0053 10.3235C33.6398 10.3235 33.3406 10.4421 33.1077 10.6792C32.8741 10.9149 32.7478 11.2007 32.7295 11.5373Z" fill="#202020"/>
<path d="M42.7679 10.8627L41.2634 10.9558C41.2218 10.766 41.1173 10.603 40.9501 10.4675C40.7843 10.3306 40.5584 10.2615 40.2727 10.2615C40.0186 10.2615 39.8027 10.3151 39.6263 10.4223C39.4492 10.5282 39.3624 10.67 39.3666 10.8486C39.3624 10.9897 39.4181 11.1097 39.5331 11.207C39.6474 11.3051 39.8422 11.3834 40.1174 11.4413L41.19 11.6587C42.3304 11.8922 42.9012 12.4264 42.9034 13.2619C42.9034 13.6514 42.789 13.993 42.5618 14.2865C42.3339 14.5787 42.0213 14.8059 41.6247 14.9696C41.2295 15.1333 40.7758 15.2152 40.2642 15.2152C39.4795 15.2152 38.8536 15.0515 38.3871 14.724C37.9221 14.3952 37.6511 13.9478 37.5742 13.3833L39.1916 13.2986C39.2424 13.5399 39.3609 13.722 39.5472 13.8462C39.7349 13.969 39.9749 14.0297 40.267 14.0297C40.5563 14.0297 40.7892 13.9732 40.9642 13.8603C41.1406 13.7474 41.2302 13.6034 41.2324 13.4284C41.2246 13.1349 40.9713 12.9387 40.4731 12.8385L39.4456 12.6353C38.2996 12.4059 37.7281 11.8414 37.7323 10.9417C37.7302 10.3701 37.9588 9.91921 38.4182 9.58966C38.8769 9.26083 39.4858 9.0957 40.2444 9.0957C40.9931 9.0957 41.5831 9.25377 42.0142 9.56991C42.4447 9.88604 42.6959 10.3172 42.7679 10.8627Z" fill="#202020"/>
<path d="M47.0922 9.17516V10.4086H45.9773V13.2793C45.9773 13.5051 46.0281 13.6589 46.1297 13.7394C46.2327 13.8184 46.3675 13.8579 46.5333 13.8579C46.6103 13.8579 46.6872 13.8516 46.7648 13.8381C46.8417 13.8233 46.901 13.812 46.9426 13.8043L47.1995 15.0265C47.1183 15.0533 47.0026 15.0829 46.8523 15.1168C46.7034 15.1521 46.5228 15.174 46.3104 15.1817C45.712 15.2057 45.2321 15.0766 44.8708 14.7922C44.5095 14.5085 44.3303 14.0752 44.3345 13.4938V10.4086H43.5244V9.17516H44.3345V7.75537H45.9773V9.17516H47.0922Z" fill="#202020"/>
<path d="M48.1597 15.0997V9.17502H49.8053V15.0997H48.1597ZM48.9049 8.41009C48.6635 8.41009 48.4561 8.32823 48.2811 8.16452C48.1061 8.00081 48.0186 7.80534 48.0186 7.57741C48.0186 7.34807 48.1061 7.15261 48.2811 6.99031C48.4561 6.82871 48.6635 6.74756 48.9049 6.74756C49.149 6.74756 49.3593 6.82871 49.5343 6.99031C49.7093 7.15261 49.7968 7.34807 49.7968 7.57741C49.7968 7.80534 49.7093 8.00081 49.5343 8.16452C49.3593 8.32823 49.149 8.41009 48.9049 8.41009Z" fill="#202020"/>
<path d="M51.1133 15.0994V9.17474H52.6798V10.2191H52.7504C52.8746 9.8691 53.0807 9.5946 53.3686 9.3949C53.6579 9.19591 54.0022 9.0957 54.4016 9.0957C54.8081 9.0957 55.1532 9.19732 55.4376 9.40055C55.7233 9.60237 55.9146 9.87475 56.0106 10.2191H56.0726C56.1926 9.8804 56.4121 9.60872 56.7303 9.40337C57.0479 9.19873 57.4247 9.0957 57.8594 9.0957C58.4105 9.0957 58.8593 9.27212 59.2058 9.62354C59.5515 9.97354 59.7251 10.4703 59.7251 11.1139V15.0994H58.0852V11.4385C58.0852 11.1097 57.9977 10.8627 57.8227 10.699C57.6477 10.5338 57.4289 10.4506 57.1678 10.4506C56.8686 10.4506 56.6351 10.5458 56.4678 10.7357C56.302 10.9262 56.2194 11.1746 56.2194 11.4808V15.0994H54.6246V11.4046C54.6246 11.1132 54.5414 10.8817 54.3762 10.7102C54.2104 10.5374 53.9924 10.4506 53.7214 10.4506C53.4483 10.4506 53.2197 10.5508 53.0355 10.7498C52.8506 10.9495 52.7589 11.2141 52.7589 11.5429V15.0994H51.1133Z" fill="#202020"/>
<path d="M63.7 15.2152C63.0994 15.2152 62.5808 15.0874 62.1447 14.8313C61.71 14.5758 61.3741 14.2181 61.137 13.7587C60.9013 13.3 60.7842 12.7665 60.7842 12.1583C60.7842 11.5472 60.9013 11.0116 61.137 10.5522C61.3741 10.0935 61.71 9.73574 62.1447 9.47958C62.5808 9.22413 63.0994 9.0957 63.7 9.0957C64.2984 9.0957 64.8156 9.22413 65.2524 9.47958C65.6885 9.73574 66.0244 10.0935 66.2601 10.5522C66.4972 11.0116 66.6157 11.5472 66.6157 12.1583C66.6157 12.7665 66.4972 13.3 66.2601 13.7587C66.0244 14.2181 65.6885 14.5758 65.2524 14.8313C64.8156 15.0874 64.2984 15.2152 63.7 15.2152ZM63.7084 13.9422C64.1149 13.9422 64.4226 13.7728 64.6314 13.4341C64.8403 13.094 64.9447 12.6649 64.9447 12.147C64.9447 11.6318 64.8403 11.2035 64.6314 10.8627C64.4226 10.5204 64.1149 10.349 63.7084 10.349C63.2942 10.349 62.9809 10.5204 62.7685 10.8627C62.5575 11.2035 62.4524 11.6318 62.4524 12.147C62.4524 12.6649 62.5575 13.094 62.7685 13.4341C62.9809 13.7728 63.2942 13.9422 63.7084 13.9422Z" fill="#202020"/>
<path d="M69.3331 11.6728V15.0994H67.6875V9.17474H69.2541V10.2191H69.3246C69.458 9.87475 69.6782 9.60237 69.9851 9.40055C70.2935 9.19732 70.6668 9.0957 71.1057 9.0957C71.7225 9.0957 72.2178 9.2954 72.5904 9.6941C72.9644 10.0914 73.1521 10.6354 73.1521 11.3256V15.0994H71.5093V11.6191C71.5108 11.2564 71.4176 10.9728 71.2299 10.7695C71.0415 10.5649 70.7825 10.4619 70.4537 10.4619C70.122 10.4619 69.8532 10.5684 69.6464 10.7808C69.4389 10.9939 69.3345 11.291 69.3331 11.6728Z" fill="#202020"/>
<path d="M74.4409 15.0997V9.17502H76.0865V15.0997H74.4409ZM75.1861 8.41009C74.9448 8.41009 74.7373 8.32823 74.5623 8.16452C74.3873 8.00081 74.2998 7.80534 74.2998 7.57741C74.2998 7.34807 74.3873 7.15261 74.5623 6.99031C74.7373 6.82871 74.9448 6.74756 75.1861 6.74756C75.4303 6.74756 75.6406 6.82871 75.8156 6.99031C75.9906 7.15261 76.0781 7.34807 76.0781 7.57741C76.0781 7.80534 75.9906 8.00081 75.8156 8.16452C75.6406 8.32823 75.4303 8.41009 75.1861 8.41009Z" fill="#202020"/>
<path d="M79.0855 15.2124C78.5189 15.2124 78.0496 15.0649 77.677 14.7692C77.3045 14.4721 77.1182 14.0311 77.1182 13.4454C77.1182 13.0036 77.2212 12.6565 77.4287 12.4038C77.6375 12.1519 77.9113 11.9677 78.25 11.8506C78.5888 11.732 78.9536 11.6551 79.3452 11.6191C79.8589 11.5683 80.2259 11.5147 80.446 11.4582C80.6676 11.4018 80.7791 11.2776 80.7791 11.0857V11.0631C80.7791 10.8189 80.7015 10.6298 80.5477 10.4957C80.3952 10.3624 80.1786 10.2953 79.8985 10.2953C79.6028 10.2953 79.3678 10.3602 79.1928 10.4901C79.0178 10.6185 78.9021 10.7808 78.8456 10.9784L77.327 10.8542C77.4399 10.3144 77.7201 9.88604 78.1682 9.56991C78.6177 9.25377 79.197 9.0957 79.9069 9.0957C80.3473 9.0957 80.758 9.16556 81.1404 9.30458C81.5243 9.4443 81.8334 9.66164 82.0691 9.95661C82.304 10.2502 82.4219 10.6326 82.4219 11.1026V15.0994H80.8638V14.2781H80.8186C80.6733 14.5533 80.4573 14.7777 80.1694 14.9527C79.8829 15.1256 79.5216 15.2124 79.0855 15.2124ZM79.5569 14.0777C79.9161 14.0777 80.2118 13.9732 80.4432 13.7643C80.6747 13.5541 80.7904 13.293 80.7904 12.9825V12.353C80.7262 12.3968 80.6267 12.4349 80.4912 12.4688C80.3557 12.5026 80.2118 12.5323 80.0593 12.5563C79.9069 12.581 79.77 12.6014 79.6501 12.6183C79.3622 12.66 79.1293 12.7411 78.9529 12.8611C78.7758 12.9818 78.6875 13.1575 78.6875 13.3889C78.6875 13.6169 78.7694 13.789 78.9331 13.9055C79.0968 14.0205 79.3043 14.0777 79.5569 14.0777Z" fill="#202020"/>
<path d="M85.3458 7.19922V15.0998H83.7002V7.19922H85.3458Z" fill="#202020"/>
<path d="M11.094 2.88525C6.49308 2.88525 2.76367 6.61536 2.76367 11.2156C2.76367 15.8164 6.49308 19.5458 11.094 19.5458C15.6942 19.5458 19.4243 15.8157 19.4243 11.2156C19.4243 6.61536 15.6942 2.88525 11.094 2.88525ZM9.05321 13.4525C9.05321 13.9027 8.68838 14.2668 8.23888 14.2668C7.78867 14.2668 7.42455 13.9027 7.42455 13.4525V9.98065C7.42455 9.53044 7.78867 9.16561 8.23888 9.16561C8.68838 9.16561 9.05321 9.53044 9.05321 9.98065V13.4525ZM14.8057 13.3939C14.8057 14.0304 14.4339 14.2584 13.7973 14.2584H10.8689C10.2324 14.2584 9.71652 13.7425 9.71652 13.106V10.2255C9.71652 10.2255 9.65937 9.74637 10.19 9.29616C10.4899 9.04142 10.9352 8.55522 11.2464 7.96529C11.8645 6.79319 12.2343 6.45165 12.5159 6.54339C13.5588 6.8814 13.0374 8.4275 12.7008 9.07317H13.6534C14.2892 9.07317 14.8057 9.58901 14.8057 10.2255V13.3939Z" fill="#5D5DFF"/>
</svg>
