<svg width="22" height="21" viewBox="0 0 22 21" fill="none" xmlns="http://www.w3.org/2000/svg">
<path d="M10.3246 2.12908C10.5423 1.45894 11.4904 1.45894 11.7081 2.12908L13.1393 6.5339C13.2367 6.8336 13.516 7.03651 13.8311 7.03651H18.4626C19.1672 7.03651 19.4602 7.93818 18.8902 8.35235L15.1432 11.0747C14.8883 11.2599 14.7816 11.5882 14.879 11.8879L16.3102 16.2927C16.5279 16.9629 15.7609 17.5201 15.1908 17.106L11.4439 14.3836C11.1889 14.1984 10.8437 14.1984 10.5888 14.3836L6.84183 17.106C6.27177 17.5201 5.50476 16.9629 5.72251 16.2927L7.15372 11.8879C7.2511 11.5882 7.14442 11.2599 6.88948 11.0747L3.14252 8.35235C2.57246 7.93818 2.86543 7.03651 3.57006 7.03651H8.20156C8.51669 7.03651 8.79597 6.8336 8.89334 6.5339L10.3246 2.12908Z" fill="#182C92"/>
</svg>
