<svg width="21" height="21" viewBox="0 0 21 21" fill="none" xmlns="http://www.w3.org/2000/svg">
<path d="M10.058 2.12908C10.2757 1.45894 11.2238 1.45894 11.4415 2.12908L12.8727 6.5339C12.9701 6.8336 13.2494 7.03651 13.5645 7.03651H18.196C18.9006 7.03651 19.1936 7.93818 18.6236 8.35235L14.8766 11.0747C14.6217 11.2599 14.515 11.5882 14.6124 11.8879L16.0436 16.2927C16.2613 16.9629 15.4943 17.5201 14.9242 17.106L11.1773 14.3836C10.9223 14.1984 10.5771 14.1984 10.3222 14.3836L6.57523 17.106C6.00517 17.5201 5.23816 16.9629 5.4559 16.2927L6.88712 11.8879C6.9845 11.5882 6.87782 11.2599 6.62288 11.0747L2.87592 8.35235C2.30586 7.93818 2.59883 7.03651 3.30346 7.03651H7.93496C8.25008 7.03651 8.52937 6.8336 8.62674 6.5339L10.058 2.12908Z" fill="#3E66DF"/>
</svg>
