<svg width="21" height="21" viewBox="0 0 21 21" fill="none" xmlns="http://www.w3.org/2000/svg">
<path d="M9.79135 2.12908C10.0091 1.45894 10.9572 1.45894 11.1749 2.12908L12.6061 6.5339C12.7035 6.8336 12.9828 7.03651 13.2979 7.03651H17.9294C18.634 7.03651 18.927 7.93818 18.357 8.35235L14.61 11.0747C14.3551 11.2599 14.2484 11.5882 14.3458 11.8879L15.777 16.2927C15.9947 16.9629 15.2277 17.5201 14.6576 17.106L10.9107 14.3836C10.6557 14.1984 10.3105 14.1984 10.0556 14.3836L6.30863 17.106C5.73857 17.5201 4.97156 16.9629 5.1893 16.2927L6.62052 11.8879C6.71789 11.5882 6.61122 11.2599 6.35628 11.0747L2.60932 8.35235C2.03926 7.93818 2.33223 7.03651 3.03686 7.03651H7.66836C7.98348 7.03651 8.26276 6.8336 8.36014 6.5339L9.79135 2.12908Z" fill="#3E66DF"/>
</svg>
