<svg width="21" height="21" viewBox="0 0 21 21" fill="none" xmlns="http://www.w3.org/2000/svg">
<path d="M9.69077 2.12908C9.90851 1.45894 10.8566 1.45894 11.0743 2.12908L12.5055 6.5339C12.6029 6.8336 12.8822 7.03651 13.1973 7.03651H17.8288C18.5335 7.03651 18.8264 7.93818 18.2564 8.35235L14.5094 11.0747C14.2545 11.2599 14.1478 11.5882 14.2452 11.8879L15.6764 16.2927C15.8941 16.9629 15.1271 17.5201 14.5571 17.106L10.8101 14.3836C10.5552 14.1984 10.2099 14.1984 9.955 14.3836L6.20804 17.106C5.63798 17.5201 4.87097 16.9629 5.08872 16.2927L6.51993 11.8879C6.61731 11.5882 6.51063 11.2599 6.25569 11.0747L2.50873 8.35235C1.93867 7.93818 2.23164 7.03651 2.93627 7.03651H7.56778C7.8829 7.03651 8.16218 6.8336 8.25956 6.5339L9.69077 2.12908Z" fill="#3E66DF"/>
</svg>
