<svg width="22" height="21" viewBox="0 0 22 21" fill="none" xmlns="http://www.w3.org/2000/svg">
<path d="M10.4242 2.12908C10.6419 1.45894 11.59 1.45894 11.8077 2.12908L13.2389 6.5339C13.3363 6.8336 13.6156 7.03651 13.9307 7.03651H18.5622C19.2669 7.03651 19.5598 7.93818 18.9898 8.35235L15.2428 11.0747C14.9879 11.2599 14.8812 11.5882 14.9786 11.8879L16.4098 16.2927C16.6275 16.9629 15.8605 17.5201 15.2905 17.106L11.5435 14.3836C11.2886 14.1984 10.9433 14.1984 10.6884 14.3836L6.94144 17.106C6.37138 17.5201 5.60437 16.9629 5.82212 16.2927L7.25333 11.8879C7.35071 11.5882 7.24403 11.2599 6.98909 11.0747L3.24213 8.35235C2.67207 7.93818 2.96504 7.03651 3.66967 7.03651H8.30117C8.61629 7.03651 8.89558 6.8336 8.99295 6.5339L10.4242 2.12908Z" fill="#182C92"/>
</svg>
