<svg width="42" height="42" viewBox="0 0 42 42" fill="none" xmlns="http://www.w3.org/2000/svg">
<path d="M4.44957 4.134H13.7302L16.7211 11.6124L11.9154 14.8163C11.6324 15.0051 11.4004 15.2608 11.24 15.5608C11.0795 15.8608 10.9956 16.1958 10.9956 16.536C11.0018 16.7303 10.9956 16.5381 10.9956 16.5381V16.5815C10.9969 16.6739 11.001 16.7663 11.008 16.8585C11.0204 17.028 11.0411 17.2574 11.0804 17.5406C11.161 18.0987 11.316 18.8676 11.6178 19.7729C12.2255 21.5919 13.416 23.9462 15.7352 26.2654C18.0543 28.5846 20.4086 29.7752 22.2254 30.3829C23.1328 30.6846 23.8996 30.8376 24.4619 30.9203C24.7792 30.9646 25.0986 30.9922 25.4189 31.003L25.4457 31.005H25.4623C25.4623 31.005 25.6938 30.9926 25.4643 31.005C25.8481 31.0048 26.2242 30.8978 26.5506 30.6959C26.8769 30.494 27.1407 30.2053 27.3122 29.862L28.6971 27.0922L37.8661 28.6218V37.5512C33.5027 38.1817 21.7169 38.8038 12.457 29.5437C3.19699 20.2835 3.81708 8.49538 4.44957 4.134ZM15.2804 17.5406L19.0154 15.0519C19.8045 14.5256 20.3885 13.7439 20.6697 12.8381C20.9508 11.9322 20.9119 10.9572 20.5594 10.0766L17.5686 2.59822C17.2616 1.83117 16.7319 1.17367 16.0478 0.710557C15.3636 0.247439 14.5564 -5.53821e-05 13.7302 0H4.34209C2.46322 0 0.695974 1.30428 0.387998 3.34234C-0.314768 7.97656 -1.26764 21.6642 9.53429 32.4664C20.3362 43.2685 34.0236 42.3136 38.6577 41.6129C40.6957 41.3028 42 39.5376 42 37.6587V28.6218C42.0001 27.6432 41.6531 26.6963 41.0206 25.9495C40.3882 25.2027 39.5114 24.7046 38.5461 24.5436L29.3771 23.0161C28.505 22.8705 27.6093 23.0084 26.8213 23.4094C26.0334 23.8104 25.3948 24.4536 24.9993 25.2443L24.2841 26.6767C24.0312 26.6144 23.7809 26.542 23.5338 26.4597C22.2523 26.0339 20.4726 25.1575 18.6578 23.3427C16.8431 21.5278 15.9667 19.7481 15.5409 18.4645C15.4392 18.1611 15.353 17.8527 15.2825 17.5406H15.2804Z" fill="#F5F5F5"/>
<path d="M4.44957 4.134H13.7302L16.7211 11.6124L11.9154 14.8163C11.6324 15.0051 11.4004 15.2608 11.24 15.5608C11.0795 15.8608 10.9956 16.1958 10.9956 16.536C11.0018 16.7303 10.9956 16.5381 10.9956 16.5381V16.5815C10.9969 16.6739 11.001 16.7663 11.008 16.8585C11.0204 17.028 11.0411 17.2574 11.0804 17.5406C11.161 18.0987 11.316 18.8676 11.6178 19.7729C12.2255 21.5919 13.416 23.9462 15.7352 26.2654C18.0543 28.5846 20.4086 29.7752 22.2254 30.3829C23.1328 30.6846 23.8996 30.8376 24.4619 30.9203C24.7792 30.9646 25.0986 30.9922 25.4189 31.003L25.4457 31.005H25.4623C25.4623 31.005 25.6938 30.9926 25.4643 31.005C25.8481 31.0048 26.2242 30.8978 26.5506 30.6959C26.8769 30.494 27.1407 30.2053 27.3122 29.862L28.6971 27.0922L37.8661 28.6218V37.5512C33.5027 38.1817 21.7169 38.8038 12.457 29.5437C3.19699 20.2835 3.81708 8.49538 4.44957 4.134ZM15.2804 17.5406L19.0154 15.0519C19.8045 14.5256 20.3885 13.7439 20.6697 12.8381C20.9508 11.9322 20.9119 10.9572 20.5594 10.0766L17.5686 2.59822C17.2616 1.83117 16.7319 1.17367 16.0478 0.710557C15.3636 0.247439 14.5564 -5.53821e-05 13.7302 0H4.34209C2.46322 0 0.695974 1.30428 0.387998 3.34234C-0.314768 7.97656 -1.26764 21.6642 9.53429 32.4664C20.3362 43.2685 34.0236 42.3136 38.6577 41.6129C40.6957 41.3028 42 39.5376 42 37.6587V28.6218C42.0001 27.6432 41.6531 26.6963 41.0206 25.9495C40.3882 25.2027 39.5114 24.7046 38.5461 24.5436L29.3771 23.0161C28.505 22.8705 27.6093 23.0084 26.8213 23.4094C26.0334 23.8104 25.3948 24.4536 24.9993 25.2443L24.2841 26.6767C24.0312 26.6144 23.7809 26.542 23.5338 26.4597C22.2523 26.0339 20.4726 25.1575 18.6578 23.3427C16.8431 21.5278 15.9667 19.7481 15.5409 18.4645C15.4392 18.1611 15.353 17.8527 15.2825 17.5406H15.2804Z" stroke="#F5F5F5"/>
</svg>
