<svg width="42" height="42" viewBox="0 0 42 42" fill="none" xmlns="http://www.w3.org/2000/svg">
<path d="M21 4.2C18.8341 4.2 16.7568 4.97437 15.2253 6.35277C13.6937 7.73116 12.8333 9.60066 12.8333 11.55C12.8333 13.4993 13.6937 15.3688 15.2253 16.7472C16.7568 18.1256 18.8341 18.9 21 18.9C23.1659 18.9 25.2432 18.1256 26.7747 16.7472C28.3063 15.3688 29.1667 13.4993 29.1667 11.55C29.1667 9.60066 28.3063 7.73116 26.7747 6.35277C25.2432 4.97437 23.1659 4.2 21 4.2ZM8.16667 11.55C8.16667 8.48675 9.51875 5.54896 11.9255 3.38292C14.3322 1.21687 17.5964 0 21 0C24.4036 0 27.6678 1.21687 30.0745 3.38292C32.4813 5.54896 33.8333 8.48675 33.8333 11.55C33.8333 14.6133 32.4813 17.551 30.0745 19.7171C27.6678 21.8831 24.4036 23.1 21 23.1C17.5964 23.1 14.3322 21.8831 11.9255 19.7171C9.51875 17.551 8.16667 14.6133 8.16667 11.55ZM0 35.7C0 32.9152 1.22916 30.2445 3.41709 28.2754C5.60501 26.3062 8.57248 25.2 11.6667 25.2H30.3333C33.4275 25.2 36.395 26.3062 38.5829 28.2754C40.7708 30.2445 42 32.9152 42 35.7V42H0V35.7ZM11.6667 29.4C9.81015 29.4 8.02967 30.0637 6.71692 31.2452C5.40417 32.4267 4.66667 34.0291 4.66667 35.7V37.8H37.3333V35.7C37.3333 34.0291 36.5958 32.4267 35.2831 31.2452C33.9703 30.0637 32.1899 29.4 30.3333 29.4H11.6667Z" fill="white"/>
</svg>
